<?xml version="1.0" encoding="UTF-8" standalone="no"?>
<!DOCTYPE svg PUBLIC "-//W3C//DTD SVG 1.1//EN"
 "http://www.w3.org/Graphics/SVG/1.1/DTD/svg11.dtd">
<!-- Generated by graphviz version 2.38.0 (20140413.2041)
 -->
<!-- Title: G Pages: 1 -->
<svg width="531pt" height="1512pt"
 viewBox="0.00 0.00 398.00 1134.00" xmlns="http://www.w3.org/2000/svg" xmlns:xlink="http://www.w3.org/1999/xlink">
<g id="graph0" class="graph" transform="scale(1.33333 1.33333) rotate(0) translate(4 1130)">
<title>G</title>
<polygon fill="white" stroke="none" points="-4,4 -4,-1130 394,-1130 394,4 -4,4"/>
<!-- 2622080531648 -->
<g id="node1" class="node"><title>2622080531648</title>
<polygon fill="none" stroke="black" points="23,-1079.5 23,-1125.5 367,-1125.5 367,-1079.5 23,-1079.5"/>
<text text-anchor="middle" x="111" y="-1098.8" font-family="Times New Roman,serif" font-size="14.00">conv2d_5_input: InputLayer</text>
<polyline fill="none" stroke="black" points="199,-1079.5 199,-1125.5 "/>
<text text-anchor="middle" x="227" y="-1110.3" font-family="Times New Roman,serif" font-size="14.00">input:</text>
<polyline fill="none" stroke="black" points="199,-1102.5 255,-1102.5 "/>
<text text-anchor="middle" x="227" y="-1087.3" font-family="Times New Roman,serif" font-size="14.00">output:</text>
<polyline fill="none" stroke="black" points="255,-1079.5 255,-1125.5 "/>
<text text-anchor="middle" x="311" y="-1110.3" font-family="Times New Roman,serif" font-size="14.00">(None, 32, 32, 3)</text>
<polyline fill="none" stroke="black" points="255,-1102.5 367,-1102.5 "/>
<text text-anchor="middle" x="311" y="-1087.3" font-family="Times New Roman,serif" font-size="14.00">(None, 32, 32, 3)</text>
</g>
<!-- 2623035959560 -->
<g id="node2" class="node"><title>2623035959560</title>
<polygon fill="none" stroke="black" points="44,-996.5 44,-1042.5 346,-1042.5 346,-996.5 44,-996.5"/>
<text text-anchor="middle" x="107.5" y="-1015.8" font-family="Times New Roman,serif" font-size="14.00">conv2d_5: Conv2D</text>
<polyline fill="none" stroke="black" points="171,-996.5 171,-1042.5 "/>
<text text-anchor="middle" x="199" y="-1027.3" font-family="Times New Roman,serif" font-size="14.00">input:</text>
<polyline fill="none" stroke="black" points="171,-1019.5 227,-1019.5 "/>
<text text-anchor="middle" x="199" y="-1004.3" font-family="Times New Roman,serif" font-size="14.00">output:</text>
<polyline fill="none" stroke="black" points="227,-996.5 227,-1042.5 "/>
<text text-anchor="middle" x="286.5" y="-1027.3" font-family="Times New Roman,serif" font-size="14.00">(None, 32, 32, 3)</text>
<polyline fill="none" stroke="black" points="227,-1019.5 346,-1019.5 "/>
<text text-anchor="middle" x="286.5" y="-1004.3" font-family="Times New Roman,serif" font-size="14.00">(None, 30, 30, 32)</text>
</g>
<!-- 2622080531648&#45;&gt;2623035959560 -->
<g id="edge1" class="edge"><title>2622080531648&#45;&gt;2623035959560</title>
<path fill="none" stroke="black" d="M195,-1079.37C195,-1071.15 195,-1061.66 195,-1052.73"/>
<polygon fill="black" stroke="black" points="198.5,-1052.61 195,-1042.61 191.5,-1052.61 198.5,-1052.61"/>
</g>
<!-- 2622080531872 -->
<g id="node3" class="node"><title>2622080531872</title>
<polygon fill="none" stroke="black" points="44,-913.5 44,-959.5 346,-959.5 346,-913.5 44,-913.5"/>
<text text-anchor="middle" x="107.5" y="-932.8" font-family="Times New Roman,serif" font-size="14.00">conv2d_6: Conv2D</text>
<polyline fill="none" stroke="black" points="171,-913.5 171,-959.5 "/>
<text text-anchor="middle" x="199" y="-944.3" font-family="Times New Roman,serif" font-size="14.00">input:</text>
<polyline fill="none" stroke="black" points="171,-936.5 227,-936.5 "/>
<text text-anchor="middle" x="199" y="-921.3" font-family="Times New Roman,serif" font-size="14.00">output:</text>
<polyline fill="none" stroke="black" points="227,-913.5 227,-959.5 "/>
<text text-anchor="middle" x="286.5" y="-944.3" font-family="Times New Roman,serif" font-size="14.00">(None, 30, 30, 32)</text>
<polyline fill="none" stroke="black" points="227,-936.5 346,-936.5 "/>
<text text-anchor="middle" x="286.5" y="-921.3" font-family="Times New Roman,serif" font-size="14.00">(None, 28, 28, 64)</text>
</g>
<!-- 2623035959560&#45;&gt;2622080531872 -->
<g id="edge2" class="edge"><title>2623035959560&#45;&gt;2622080531872</title>
<path fill="none" stroke="black" d="M195,-996.366C195,-988.152 195,-978.658 195,-969.725"/>
<polygon fill="black" stroke="black" points="198.5,-969.607 195,-959.607 191.5,-969.607 198.5,-969.607"/>
</g>
<!-- 2622080532376 -->
<g id="node4" class="node"><title>2622080532376</title>
<polygon fill="none" stroke="black" points="3,-830.5 3,-876.5 387,-876.5 387,-830.5 3,-830.5"/>
<text text-anchor="middle" x="107.5" y="-849.8" font-family="Times New Roman,serif" font-size="14.00">max_pooling2d_4: MaxPooling2D</text>
<polyline fill="none" stroke="black" points="212,-830.5 212,-876.5 "/>
<text text-anchor="middle" x="240" y="-861.3" font-family="Times New Roman,serif" font-size="14.00">input:</text>
<polyline fill="none" stroke="black" points="212,-853.5 268,-853.5 "/>
<text text-anchor="middle" x="240" y="-838.3" font-family="Times New Roman,serif" font-size="14.00">output:</text>
<polyline fill="none" stroke="black" points="268,-830.5 268,-876.5 "/>
<text text-anchor="middle" x="327.5" y="-861.3" font-family="Times New Roman,serif" font-size="14.00">(None, 28, 28, 64)</text>
<polyline fill="none" stroke="black" points="268,-853.5 387,-853.5 "/>
<text text-anchor="middle" x="327.5" y="-838.3" font-family="Times New Roman,serif" font-size="14.00">(None, 14, 14, 64)</text>
</g>
<!-- 2622080531872&#45;&gt;2622080532376 -->
<g id="edge3" class="edge"><title>2622080531872&#45;&gt;2622080532376</title>
<path fill="none" stroke="black" d="M195,-913.366C195,-905.152 195,-895.658 195,-886.725"/>
<polygon fill="black" stroke="black" points="198.5,-886.607 195,-876.607 191.5,-886.607 198.5,-886.607"/>
</g>
<!-- 2622080428016 -->
<g id="node5" class="node"><title>2622080428016</title>
<polygon fill="none" stroke="black" points="42.5,-747.5 42.5,-793.5 347.5,-793.5 347.5,-747.5 42.5,-747.5"/>
<text text-anchor="middle" x="107.5" y="-766.8" font-family="Times New Roman,serif" font-size="14.00">dropout_4: Dropout</text>
<polyline fill="none" stroke="black" points="172.5,-747.5 172.5,-793.5 "/>
<text text-anchor="middle" x="200.5" y="-778.3" font-family="Times New Roman,serif" font-size="14.00">input:</text>
<polyline fill="none" stroke="black" points="172.5,-770.5 228.5,-770.5 "/>
<text text-anchor="middle" x="200.5" y="-755.3" font-family="Times New Roman,serif" font-size="14.00">output:</text>
<polyline fill="none" stroke="black" points="228.5,-747.5 228.5,-793.5 "/>
<text text-anchor="middle" x="288" y="-778.3" font-family="Times New Roman,serif" font-size="14.00">(None, 14, 14, 64)</text>
<polyline fill="none" stroke="black" points="228.5,-770.5 347.5,-770.5 "/>
<text text-anchor="middle" x="288" y="-755.3" font-family="Times New Roman,serif" font-size="14.00">(None, 14, 14, 64)</text>
</g>
<!-- 2622080532376&#45;&gt;2622080428016 -->
<g id="edge4" class="edge"><title>2622080532376&#45;&gt;2622080428016</title>
<path fill="none" stroke="black" d="M195,-830.366C195,-822.152 195,-812.658 195,-803.725"/>
<polygon fill="black" stroke="black" points="198.5,-803.607 195,-793.607 191.5,-803.607 198.5,-803.607"/>
</g>
<!-- 2623370073816 -->
<g id="node6" class="node"><title>2623370073816</title>
<polygon fill="none" stroke="black" points="41,-664.5 41,-710.5 349,-710.5 349,-664.5 41,-664.5"/>
<text text-anchor="middle" x="104.5" y="-683.8" font-family="Times New Roman,serif" font-size="14.00">conv2d_7: Conv2D</text>
<polyline fill="none" stroke="black" points="168,-664.5 168,-710.5 "/>
<text text-anchor="middle" x="196" y="-695.3" font-family="Times New Roman,serif" font-size="14.00">input:</text>
<polyline fill="none" stroke="black" points="168,-687.5 224,-687.5 "/>
<text text-anchor="middle" x="196" y="-672.3" font-family="Times New Roman,serif" font-size="14.00">output:</text>
<polyline fill="none" stroke="black" points="224,-664.5 224,-710.5 "/>
<text text-anchor="middle" x="286.5" y="-695.3" font-family="Times New Roman,serif" font-size="14.00">(None, 14, 14, 64)</text>
<polyline fill="none" stroke="black" points="224,-687.5 349,-687.5 "/>
<text text-anchor="middle" x="286.5" y="-672.3" font-family="Times New Roman,serif" font-size="14.00">(None, 12, 12, 128)</text>
</g>
<!-- 2622080428016&#45;&gt;2623370073816 -->
<g id="edge5" class="edge"><title>2622080428016&#45;&gt;2623370073816</title>
<path fill="none" stroke="black" d="M195,-747.366C195,-739.152 195,-729.658 195,-720.725"/>
<polygon fill="black" stroke="black" points="198.5,-720.607 195,-710.607 191.5,-720.607 198.5,-720.607"/>
</g>
<!-- 2622080591408 -->
<g id="node7" class="node"><title>2622080591408</title>
<polygon fill="none" stroke="black" points="0,-581.5 0,-627.5 390,-627.5 390,-581.5 0,-581.5"/>
<text text-anchor="middle" x="104.5" y="-600.8" font-family="Times New Roman,serif" font-size="14.00">max_pooling2d_5: MaxPooling2D</text>
<polyline fill="none" stroke="black" points="209,-581.5 209,-627.5 "/>
<text text-anchor="middle" x="237" y="-612.3" font-family="Times New Roman,serif" font-size="14.00">input:</text>
<polyline fill="none" stroke="black" points="209,-604.5 265,-604.5 "/>
<text text-anchor="middle" x="237" y="-589.3" font-family="Times New Roman,serif" font-size="14.00">output:</text>
<polyline fill="none" stroke="black" points="265,-581.5 265,-627.5 "/>
<text text-anchor="middle" x="327.5" y="-612.3" font-family="Times New Roman,serif" font-size="14.00">(None, 12, 12, 128)</text>
<polyline fill="none" stroke="black" points="265,-604.5 390,-604.5 "/>
<text text-anchor="middle" x="327.5" y="-589.3" font-family="Times New Roman,serif" font-size="14.00">(None, 6, 6, 128)</text>
</g>
<!-- 2623370073816&#45;&gt;2622080591408 -->
<g id="edge6" class="edge"><title>2623370073816&#45;&gt;2622080591408</title>
<path fill="none" stroke="black" d="M195,-664.366C195,-656.152 195,-646.658 195,-637.725"/>
<polygon fill="black" stroke="black" points="198.5,-637.607 195,-627.607 191.5,-637.607 198.5,-637.607"/>
</g>
<!-- 2622080593368 -->
<g id="node8" class="node"><title>2622080593368</title>
<polygon fill="none" stroke="black" points="47.5,-498.5 47.5,-544.5 342.5,-544.5 342.5,-498.5 47.5,-498.5"/>
<text text-anchor="middle" x="111" y="-517.8" font-family="Times New Roman,serif" font-size="14.00">conv2d_8: Conv2D</text>
<polyline fill="none" stroke="black" points="174.5,-498.5 174.5,-544.5 "/>
<text text-anchor="middle" x="202.5" y="-529.3" font-family="Times New Roman,serif" font-size="14.00">input:</text>
<polyline fill="none" stroke="black" points="174.5,-521.5 230.5,-521.5 "/>
<text text-anchor="middle" x="202.5" y="-506.3" font-family="Times New Roman,serif" font-size="14.00">output:</text>
<polyline fill="none" stroke="black" points="230.5,-498.5 230.5,-544.5 "/>
<text text-anchor="middle" x="286.5" y="-529.3" font-family="Times New Roman,serif" font-size="14.00">(None, 6, 6, 128)</text>
<polyline fill="none" stroke="black" points="230.5,-521.5 342.5,-521.5 "/>
<text text-anchor="middle" x="286.5" y="-506.3" font-family="Times New Roman,serif" font-size="14.00">(None, 4, 4, 128)</text>
</g>
<!-- 2622080591408&#45;&gt;2622080593368 -->
<g id="edge7" class="edge"><title>2622080591408&#45;&gt;2622080593368</title>
<path fill="none" stroke="black" d="M195,-581.366C195,-573.152 195,-563.658 195,-554.725"/>
<polygon fill="black" stroke="black" points="198.5,-554.607 195,-544.607 191.5,-554.607 198.5,-554.607"/>
</g>
<!-- 2622080671080 -->
<g id="node9" class="node"><title>2622080671080</title>
<polygon fill="none" stroke="black" points="6.5,-415.5 6.5,-461.5 383.5,-461.5 383.5,-415.5 6.5,-415.5"/>
<text text-anchor="middle" x="111" y="-434.8" font-family="Times New Roman,serif" font-size="14.00">max_pooling2d_6: MaxPooling2D</text>
<polyline fill="none" stroke="black" points="215.5,-415.5 215.5,-461.5 "/>
<text text-anchor="middle" x="243.5" y="-446.3" font-family="Times New Roman,serif" font-size="14.00">input:</text>
<polyline fill="none" stroke="black" points="215.5,-438.5 271.5,-438.5 "/>
<text text-anchor="middle" x="243.5" y="-423.3" font-family="Times New Roman,serif" font-size="14.00">output:</text>
<polyline fill="none" stroke="black" points="271.5,-415.5 271.5,-461.5 "/>
<text text-anchor="middle" x="327.5" y="-446.3" font-family="Times New Roman,serif" font-size="14.00">(None, 4, 4, 128)</text>
<polyline fill="none" stroke="black" points="271.5,-438.5 383.5,-438.5 "/>
<text text-anchor="middle" x="327.5" y="-423.3" font-family="Times New Roman,serif" font-size="14.00">(None, 2, 2, 128)</text>
</g>
<!-- 2622080593368&#45;&gt;2622080671080 -->
<g id="edge8" class="edge"><title>2622080593368&#45;&gt;2622080671080</title>
<path fill="none" stroke="black" d="M195,-498.366C195,-490.152 195,-480.658 195,-471.725"/>
<polygon fill="black" stroke="black" points="198.5,-471.607 195,-461.607 191.5,-471.607 198.5,-471.607"/>
</g>
<!-- 2622080697120 -->
<g id="node10" class="node"><title>2622080697120</title>
<polygon fill="none" stroke="black" points="46,-332.5 46,-378.5 344,-378.5 344,-332.5 46,-332.5"/>
<text text-anchor="middle" x="111" y="-351.8" font-family="Times New Roman,serif" font-size="14.00">dropout_5: Dropout</text>
<polyline fill="none" stroke="black" points="176,-332.5 176,-378.5 "/>
<text text-anchor="middle" x="204" y="-363.3" font-family="Times New Roman,serif" font-size="14.00">input:</text>
<polyline fill="none" stroke="black" points="176,-355.5 232,-355.5 "/>
<text text-anchor="middle" x="204" y="-340.3" font-family="Times New Roman,serif" font-size="14.00">output:</text>
<polyline fill="none" stroke="black" points="232,-332.5 232,-378.5 "/>
<text text-anchor="middle" x="288" y="-363.3" font-family="Times New Roman,serif" font-size="14.00">(None, 2, 2, 128)</text>
<polyline fill="none" stroke="black" points="232,-355.5 344,-355.5 "/>
<text text-anchor="middle" x="288" y="-340.3" font-family="Times New Roman,serif" font-size="14.00">(None, 2, 2, 128)</text>
</g>
<!-- 2622080671080&#45;&gt;2622080697120 -->
<g id="edge9" class="edge"><title>2622080671080&#45;&gt;2622080697120</title>
<path fill="none" stroke="black" d="M195,-415.366C195,-407.152 195,-397.658 195,-388.725"/>
<polygon fill="black" stroke="black" points="198.5,-388.607 195,-378.607 191.5,-388.607 198.5,-388.607"/>
</g>
<!-- 2622080697848 -->
<g id="node11" class="node"><title>2622080697848</title>
<polygon fill="none" stroke="black" points="56.5,-249.5 56.5,-295.5 333.5,-295.5 333.5,-249.5 56.5,-249.5"/>
<text text-anchor="middle" x="111" y="-268.8" font-family="Times New Roman,serif" font-size="14.00">flatten_2: Flatten</text>
<polyline fill="none" stroke="black" points="165.5,-249.5 165.5,-295.5 "/>
<text text-anchor="middle" x="193.5" y="-280.3" font-family="Times New Roman,serif" font-size="14.00">input:</text>
<polyline fill="none" stroke="black" points="165.5,-272.5 221.5,-272.5 "/>
<text text-anchor="middle" x="193.5" y="-257.3" font-family="Times New Roman,serif" font-size="14.00">output:</text>
<polyline fill="none" stroke="black" points="221.5,-249.5 221.5,-295.5 "/>
<text text-anchor="middle" x="277.5" y="-280.3" font-family="Times New Roman,serif" font-size="14.00">(None, 2, 2, 128)</text>
<polyline fill="none" stroke="black" points="221.5,-272.5 333.5,-272.5 "/>
<text text-anchor="middle" x="277.5" y="-257.3" font-family="Times New Roman,serif" font-size="14.00">(None, 512)</text>
</g>
<!-- 2622080697120&#45;&gt;2622080697848 -->
<g id="edge10" class="edge"><title>2622080697120&#45;&gt;2622080697848</title>
<path fill="none" stroke="black" d="M195,-332.366C195,-324.152 195,-314.658 195,-305.725"/>
<polygon fill="black" stroke="black" points="198.5,-305.607 195,-295.607 191.5,-305.607 198.5,-305.607"/>
</g>
<!-- 2622080697624 -->
<g id="node12" class="node"><title>2622080697624</title>
<polygon fill="none" stroke="black" points="70,-166.5 70,-212.5 320,-212.5 320,-166.5 70,-166.5"/>
<text text-anchor="middle" x="122" y="-185.8" font-family="Times New Roman,serif" font-size="14.00">dense_3: Dense</text>
<polyline fill="none" stroke="black" points="174,-166.5 174,-212.5 "/>
<text text-anchor="middle" x="202" y="-197.3" font-family="Times New Roman,serif" font-size="14.00">input:</text>
<polyline fill="none" stroke="black" points="174,-189.5 230,-189.5 "/>
<text text-anchor="middle" x="202" y="-174.3" font-family="Times New Roman,serif" font-size="14.00">output:</text>
<polyline fill="none" stroke="black" points="230,-166.5 230,-212.5 "/>
<text text-anchor="middle" x="275" y="-197.3" font-family="Times New Roman,serif" font-size="14.00">(None, 512)</text>
<polyline fill="none" stroke="black" points="230,-189.5 320,-189.5 "/>
<text text-anchor="middle" x="275" y="-174.3" font-family="Times New Roman,serif" font-size="14.00">(None, 1024)</text>
</g>
<!-- 2622080697848&#45;&gt;2622080697624 -->
<g id="edge11" class="edge"><title>2622080697848&#45;&gt;2622080697624</title>
<path fill="none" stroke="black" d="M195,-249.366C195,-241.152 195,-231.658 195,-222.725"/>
<polygon fill="black" stroke="black" points="198.5,-222.607 195,-212.607 191.5,-222.607 198.5,-222.607"/>
</g>
<!-- 2622080789920 -->
<g id="node13" class="node"><title>2622080789920</title>
<polygon fill="none" stroke="black" points="57,-83.5 57,-129.5 333,-129.5 333,-83.5 57,-83.5"/>
<text text-anchor="middle" x="122" y="-102.8" font-family="Times New Roman,serif" font-size="14.00">dropout_6: Dropout</text>
<polyline fill="none" stroke="black" points="187,-83.5 187,-129.5 "/>
<text text-anchor="middle" x="215" y="-114.3" font-family="Times New Roman,serif" font-size="14.00">input:</text>
<polyline fill="none" stroke="black" points="187,-106.5 243,-106.5 "/>
<text text-anchor="middle" x="215" y="-91.3" font-family="Times New Roman,serif" font-size="14.00">output:</text>
<polyline fill="none" stroke="black" points="243,-83.5 243,-129.5 "/>
<text text-anchor="middle" x="288" y="-114.3" font-family="Times New Roman,serif" font-size="14.00">(None, 1024)</text>
<polyline fill="none" stroke="black" points="243,-106.5 333,-106.5 "/>
<text text-anchor="middle" x="288" y="-91.3" font-family="Times New Roman,serif" font-size="14.00">(None, 1024)</text>
</g>
<!-- 2622080697624&#45;&gt;2622080789920 -->
<g id="edge12" class="edge"><title>2622080697624&#45;&gt;2622080789920</title>
<path fill="none" stroke="black" d="M195,-166.366C195,-158.152 195,-148.658 195,-139.725"/>
<polygon fill="black" stroke="black" points="198.5,-139.607 195,-129.607 191.5,-139.607 198.5,-139.607"/>
</g>
<!-- 2622080789528 -->
<g id="node14" class="node"><title>2622080789528</title>
<polygon fill="none" stroke="black" points="70,-0.5 70,-46.5 320,-46.5 320,-0.5 70,-0.5"/>
<text text-anchor="middle" x="122" y="-19.8" font-family="Times New Roman,serif" font-size="14.00">dense_4: Dense</text>
<polyline fill="none" stroke="black" points="174,-0.5 174,-46.5 "/>
<text text-anchor="middle" x="202" y="-31.3" font-family="Times New Roman,serif" font-size="14.00">input:</text>
<polyline fill="none" stroke="black" points="174,-23.5 230,-23.5 "/>
<text text-anchor="middle" x="202" y="-8.3" font-family="Times New Roman,serif" font-size="14.00">output:</text>
<polyline fill="none" stroke="black" points="230,-0.5 230,-46.5 "/>
<text text-anchor="middle" x="275" y="-31.3" font-family="Times New Roman,serif" font-size="14.00">(None, 1024)</text>
<polyline fill="none" stroke="black" points="230,-23.5 320,-23.5 "/>
<text text-anchor="middle" x="275" y="-8.3" font-family="Times New Roman,serif" font-size="14.00">(None, 10)</text>
</g>
<!-- 2622080789920&#45;&gt;2622080789528 -->
<g id="edge13" class="edge"><title>2622080789920&#45;&gt;2622080789528</title>
<path fill="none" stroke="black" d="M195,-83.3664C195,-75.1516 195,-65.6579 195,-56.7252"/>
<polygon fill="black" stroke="black" points="198.5,-56.6068 195,-46.6068 191.5,-56.6069 198.5,-56.6068"/>
</g>
</g>
</svg>
