<?xml version="1.0" encoding="UTF-8" standalone="no"?>
<!DOCTYPE svg PUBLIC "-//W3C//DTD SVG 1.1//EN"
 "http://www.w3.org/Graphics/SVG/1.1/DTD/svg11.dtd">
<!-- Generated by graphviz version 2.38.0 (20140413.2041)
 -->
<!-- Title: G Pages: 1 -->
<svg width="608pt" height="1955pt"
 viewBox="0.00 0.00 456.00 1466.00" xmlns="http://www.w3.org/2000/svg" xmlns:xlink="http://www.w3.org/1999/xlink">
<g id="graph0" class="graph" transform="scale(1.33333 1.33333) rotate(0) translate(4 1462)">
<title>G</title>
<polygon fill="white" stroke="none" points="-4,4 -4,-1462 452,-1462 452,4 -4,4"/>
<!-- 1554518339656 -->
<g id="node1" class="node"><title>1554518339656</title>
<polygon fill="none" stroke="black" points="45.5,-1411.5 45.5,-1457.5 402.5,-1457.5 402.5,-1411.5 45.5,-1411.5"/>
<text text-anchor="middle" x="133.5" y="-1430.8" font-family="Times New Roman,serif" font-size="14.00">conv2d_1_input: InputLayer</text>
<polyline fill="none" stroke="black" points="221.5,-1411.5 221.5,-1457.5 "/>
<text text-anchor="middle" x="249.5" y="-1442.3" font-family="Times New Roman,serif" font-size="14.00">input:</text>
<polyline fill="none" stroke="black" points="221.5,-1434.5 277.5,-1434.5 "/>
<text text-anchor="middle" x="249.5" y="-1419.3" font-family="Times New Roman,serif" font-size="14.00">output:</text>
<polyline fill="none" stroke="black" points="277.5,-1411.5 277.5,-1457.5 "/>
<text text-anchor="middle" x="340" y="-1442.3" font-family="Times New Roman,serif" font-size="14.00">(None, 128, 128, 3)</text>
<polyline fill="none" stroke="black" points="277.5,-1434.5 402.5,-1434.5 "/>
<text text-anchor="middle" x="340" y="-1419.3" font-family="Times New Roman,serif" font-size="14.00">(None, 128, 128, 3)</text>
</g>
<!-- 1554518187704 -->
<g id="node2" class="node"><title>1554518187704</title>
<polygon fill="none" stroke="black" points="66.5,-1328.5 66.5,-1374.5 381.5,-1374.5 381.5,-1328.5 66.5,-1328.5"/>
<text text-anchor="middle" x="130" y="-1347.8" font-family="Times New Roman,serif" font-size="14.00">conv2d_1: Conv2D</text>
<polyline fill="none" stroke="black" points="193.5,-1328.5 193.5,-1374.5 "/>
<text text-anchor="middle" x="221.5" y="-1359.3" font-family="Times New Roman,serif" font-size="14.00">input:</text>
<polyline fill="none" stroke="black" points="193.5,-1351.5 249.5,-1351.5 "/>
<text text-anchor="middle" x="221.5" y="-1336.3" font-family="Times New Roman,serif" font-size="14.00">output:</text>
<polyline fill="none" stroke="black" points="249.5,-1328.5 249.5,-1374.5 "/>
<text text-anchor="middle" x="315.5" y="-1359.3" font-family="Times New Roman,serif" font-size="14.00">(None, 128, 128, 3)</text>
<polyline fill="none" stroke="black" points="249.5,-1351.5 381.5,-1351.5 "/>
<text text-anchor="middle" x="315.5" y="-1336.3" font-family="Times New Roman,serif" font-size="14.00">(None, 126, 126, 32)</text>
</g>
<!-- 1554518339656&#45;&gt;1554518187704 -->
<g id="edge1" class="edge"><title>1554518339656&#45;&gt;1554518187704</title>
<path fill="none" stroke="black" d="M224,-1411.37C224,-1403.15 224,-1393.66 224,-1384.73"/>
<polygon fill="black" stroke="black" points="227.5,-1384.61 224,-1374.61 220.5,-1384.61 227.5,-1384.61"/>
</g>
<!-- 1554518339936 -->
<g id="node3" class="node"><title>1554518339936</title>
<polygon fill="none" stroke="black" points="0,-1245.5 0,-1291.5 448,-1291.5 448,-1245.5 0,-1245.5"/>
<text text-anchor="middle" x="130" y="-1264.8" font-family="Times New Roman,serif" font-size="14.00">batch_normalization_1: BatchNormalization</text>
<polyline fill="none" stroke="black" points="260,-1245.5 260,-1291.5 "/>
<text text-anchor="middle" x="288" y="-1276.3" font-family="Times New Roman,serif" font-size="14.00">input:</text>
<polyline fill="none" stroke="black" points="260,-1268.5 316,-1268.5 "/>
<text text-anchor="middle" x="288" y="-1253.3" font-family="Times New Roman,serif" font-size="14.00">output:</text>
<polyline fill="none" stroke="black" points="316,-1245.5 316,-1291.5 "/>
<text text-anchor="middle" x="382" y="-1276.3" font-family="Times New Roman,serif" font-size="14.00">(None, 126, 126, 32)</text>
<polyline fill="none" stroke="black" points="316,-1268.5 448,-1268.5 "/>
<text text-anchor="middle" x="382" y="-1253.3" font-family="Times New Roman,serif" font-size="14.00">(None, 126, 126, 32)</text>
</g>
<!-- 1554518187704&#45;&gt;1554518339936 -->
<g id="edge2" class="edge"><title>1554518187704&#45;&gt;1554518339936</title>
<path fill="none" stroke="black" d="M224,-1328.37C224,-1320.15 224,-1310.66 224,-1301.73"/>
<polygon fill="black" stroke="black" points="227.5,-1301.61 224,-1291.61 220.5,-1301.61 227.5,-1301.61"/>
</g>
<!-- 1554518340384 -->
<g id="node4" class="node"><title>1554518340384</title>
<polygon fill="none" stroke="black" points="25.5,-1162.5 25.5,-1208.5 422.5,-1208.5 422.5,-1162.5 25.5,-1162.5"/>
<text text-anchor="middle" x="130" y="-1181.8" font-family="Times New Roman,serif" font-size="14.00">max_pooling2d_1: MaxPooling2D</text>
<polyline fill="none" stroke="black" points="234.5,-1162.5 234.5,-1208.5 "/>
<text text-anchor="middle" x="262.5" y="-1193.3" font-family="Times New Roman,serif" font-size="14.00">input:</text>
<polyline fill="none" stroke="black" points="234.5,-1185.5 290.5,-1185.5 "/>
<text text-anchor="middle" x="262.5" y="-1170.3" font-family="Times New Roman,serif" font-size="14.00">output:</text>
<polyline fill="none" stroke="black" points="290.5,-1162.5 290.5,-1208.5 "/>
<text text-anchor="middle" x="356.5" y="-1193.3" font-family="Times New Roman,serif" font-size="14.00">(None, 126, 126, 32)</text>
<polyline fill="none" stroke="black" points="290.5,-1185.5 422.5,-1185.5 "/>
<text text-anchor="middle" x="356.5" y="-1170.3" font-family="Times New Roman,serif" font-size="14.00">(None, 63, 63, 32)</text>
</g>
<!-- 1554518339936&#45;&gt;1554518340384 -->
<g id="edge3" class="edge"><title>1554518339936&#45;&gt;1554518340384</title>
<path fill="none" stroke="black" d="M224,-1245.37C224,-1237.15 224,-1227.66 224,-1218.73"/>
<polygon fill="black" stroke="black" points="227.5,-1218.61 224,-1208.61 220.5,-1218.61 227.5,-1218.61"/>
</g>
<!-- 1554518341616 -->
<g id="node5" class="node"><title>1554518341616</title>
<polygon fill="none" stroke="black" points="71.5,-1079.5 71.5,-1125.5 376.5,-1125.5 376.5,-1079.5 71.5,-1079.5"/>
<text text-anchor="middle" x="136.5" y="-1098.8" font-family="Times New Roman,serif" font-size="14.00">dropout_1: Dropout</text>
<polyline fill="none" stroke="black" points="201.5,-1079.5 201.5,-1125.5 "/>
<text text-anchor="middle" x="229.5" y="-1110.3" font-family="Times New Roman,serif" font-size="14.00">input:</text>
<polyline fill="none" stroke="black" points="201.5,-1102.5 257.5,-1102.5 "/>
<text text-anchor="middle" x="229.5" y="-1087.3" font-family="Times New Roman,serif" font-size="14.00">output:</text>
<polyline fill="none" stroke="black" points="257.5,-1079.5 257.5,-1125.5 "/>
<text text-anchor="middle" x="317" y="-1110.3" font-family="Times New Roman,serif" font-size="14.00">(None, 63, 63, 32)</text>
<polyline fill="none" stroke="black" points="257.5,-1102.5 376.5,-1102.5 "/>
<text text-anchor="middle" x="317" y="-1087.3" font-family="Times New Roman,serif" font-size="14.00">(None, 63, 63, 32)</text>
</g>
<!-- 1554518340384&#45;&gt;1554518341616 -->
<g id="edge4" class="edge"><title>1554518340384&#45;&gt;1554518341616</title>
<path fill="none" stroke="black" d="M224,-1162.37C224,-1154.15 224,-1144.66 224,-1135.73"/>
<polygon fill="black" stroke="black" points="227.5,-1135.61 224,-1125.61 220.5,-1135.61 227.5,-1135.61"/>
</g>
<!-- 1554518343128 -->
<g id="node6" class="node"><title>1554518343128</title>
<polygon fill="none" stroke="black" points="73,-996.5 73,-1042.5 375,-1042.5 375,-996.5 73,-996.5"/>
<text text-anchor="middle" x="136.5" y="-1015.8" font-family="Times New Roman,serif" font-size="14.00">conv2d_2: Conv2D</text>
<polyline fill="none" stroke="black" points="200,-996.5 200,-1042.5 "/>
<text text-anchor="middle" x="228" y="-1027.3" font-family="Times New Roman,serif" font-size="14.00">input:</text>
<polyline fill="none" stroke="black" points="200,-1019.5 256,-1019.5 "/>
<text text-anchor="middle" x="228" y="-1004.3" font-family="Times New Roman,serif" font-size="14.00">output:</text>
<polyline fill="none" stroke="black" points="256,-996.5 256,-1042.5 "/>
<text text-anchor="middle" x="315.5" y="-1027.3" font-family="Times New Roman,serif" font-size="14.00">(None, 63, 63, 32)</text>
<polyline fill="none" stroke="black" points="256,-1019.5 375,-1019.5 "/>
<text text-anchor="middle" x="315.5" y="-1004.3" font-family="Times New Roman,serif" font-size="14.00">(None, 61, 61, 64)</text>
</g>
<!-- 1554518341616&#45;&gt;1554518343128 -->
<g id="edge5" class="edge"><title>1554518341616&#45;&gt;1554518343128</title>
<path fill="none" stroke="black" d="M224,-1079.37C224,-1071.15 224,-1061.66 224,-1052.73"/>
<polygon fill="black" stroke="black" points="227.5,-1052.61 224,-1042.61 220.5,-1052.61 227.5,-1052.61"/>
</g>
<!-- 1554363883816 -->
<g id="node7" class="node"><title>1554363883816</title>
<polygon fill="none" stroke="black" points="6.5,-913.5 6.5,-959.5 441.5,-959.5 441.5,-913.5 6.5,-913.5"/>
<text text-anchor="middle" x="136.5" y="-932.8" font-family="Times New Roman,serif" font-size="14.00">batch_normalization_2: BatchNormalization</text>
<polyline fill="none" stroke="black" points="266.5,-913.5 266.5,-959.5 "/>
<text text-anchor="middle" x="294.5" y="-944.3" font-family="Times New Roman,serif" font-size="14.00">input:</text>
<polyline fill="none" stroke="black" points="266.5,-936.5 322.5,-936.5 "/>
<text text-anchor="middle" x="294.5" y="-921.3" font-family="Times New Roman,serif" font-size="14.00">output:</text>
<polyline fill="none" stroke="black" points="322.5,-913.5 322.5,-959.5 "/>
<text text-anchor="middle" x="382" y="-944.3" font-family="Times New Roman,serif" font-size="14.00">(None, 61, 61, 64)</text>
<polyline fill="none" stroke="black" points="322.5,-936.5 441.5,-936.5 "/>
<text text-anchor="middle" x="382" y="-921.3" font-family="Times New Roman,serif" font-size="14.00">(None, 61, 61, 64)</text>
</g>
<!-- 1554518343128&#45;&gt;1554363883816 -->
<g id="edge6" class="edge"><title>1554518343128&#45;&gt;1554363883816</title>
<path fill="none" stroke="black" d="M224,-996.366C224,-988.152 224,-978.658 224,-969.725"/>
<polygon fill="black" stroke="black" points="227.5,-969.607 224,-959.607 220.5,-969.607 227.5,-969.607"/>
</g>
<!-- 1554518855576 -->
<g id="node8" class="node"><title>1554518855576</title>
<polygon fill="none" stroke="black" points="32,-830.5 32,-876.5 416,-876.5 416,-830.5 32,-830.5"/>
<text text-anchor="middle" x="136.5" y="-849.8" font-family="Times New Roman,serif" font-size="14.00">max_pooling2d_2: MaxPooling2D</text>
<polyline fill="none" stroke="black" points="241,-830.5 241,-876.5 "/>
<text text-anchor="middle" x="269" y="-861.3" font-family="Times New Roman,serif" font-size="14.00">input:</text>
<polyline fill="none" stroke="black" points="241,-853.5 297,-853.5 "/>
<text text-anchor="middle" x="269" y="-838.3" font-family="Times New Roman,serif" font-size="14.00">output:</text>
<polyline fill="none" stroke="black" points="297,-830.5 297,-876.5 "/>
<text text-anchor="middle" x="356.5" y="-861.3" font-family="Times New Roman,serif" font-size="14.00">(None, 61, 61, 64)</text>
<polyline fill="none" stroke="black" points="297,-853.5 416,-853.5 "/>
<text text-anchor="middle" x="356.5" y="-838.3" font-family="Times New Roman,serif" font-size="14.00">(None, 30, 30, 64)</text>
</g>
<!-- 1554363883816&#45;&gt;1554518855576 -->
<g id="edge7" class="edge"><title>1554363883816&#45;&gt;1554518855576</title>
<path fill="none" stroke="black" d="M224,-913.366C224,-905.152 224,-895.658 224,-886.725"/>
<polygon fill="black" stroke="black" points="227.5,-886.607 224,-876.607 220.5,-886.607 227.5,-886.607"/>
</g>
<!-- 1554519034176 -->
<g id="node9" class="node"><title>1554519034176</title>
<polygon fill="none" stroke="black" points="71.5,-747.5 71.5,-793.5 376.5,-793.5 376.5,-747.5 71.5,-747.5"/>
<text text-anchor="middle" x="136.5" y="-766.8" font-family="Times New Roman,serif" font-size="14.00">dropout_2: Dropout</text>
<polyline fill="none" stroke="black" points="201.5,-747.5 201.5,-793.5 "/>
<text text-anchor="middle" x="229.5" y="-778.3" font-family="Times New Roman,serif" font-size="14.00">input:</text>
<polyline fill="none" stroke="black" points="201.5,-770.5 257.5,-770.5 "/>
<text text-anchor="middle" x="229.5" y="-755.3" font-family="Times New Roman,serif" font-size="14.00">output:</text>
<polyline fill="none" stroke="black" points="257.5,-747.5 257.5,-793.5 "/>
<text text-anchor="middle" x="317" y="-778.3" font-family="Times New Roman,serif" font-size="14.00">(None, 30, 30, 64)</text>
<polyline fill="none" stroke="black" points="257.5,-770.5 376.5,-770.5 "/>
<text text-anchor="middle" x="317" y="-755.3" font-family="Times New Roman,serif" font-size="14.00">(None, 30, 30, 64)</text>
</g>
<!-- 1554518855576&#45;&gt;1554519034176 -->
<g id="edge8" class="edge"><title>1554518855576&#45;&gt;1554519034176</title>
<path fill="none" stroke="black" d="M224,-830.366C224,-822.152 224,-812.658 224,-803.725"/>
<polygon fill="black" stroke="black" points="227.5,-803.607 224,-793.607 220.5,-803.607 227.5,-803.607"/>
</g>
<!-- 1554519032608 -->
<g id="node10" class="node"><title>1554519032608</title>
<polygon fill="none" stroke="black" points="70,-664.5 70,-710.5 378,-710.5 378,-664.5 70,-664.5"/>
<text text-anchor="middle" x="133.5" y="-683.8" font-family="Times New Roman,serif" font-size="14.00">conv2d_3: Conv2D</text>
<polyline fill="none" stroke="black" points="197,-664.5 197,-710.5 "/>
<text text-anchor="middle" x="225" y="-695.3" font-family="Times New Roman,serif" font-size="14.00">input:</text>
<polyline fill="none" stroke="black" points="197,-687.5 253,-687.5 "/>
<text text-anchor="middle" x="225" y="-672.3" font-family="Times New Roman,serif" font-size="14.00">output:</text>
<polyline fill="none" stroke="black" points="253,-664.5 253,-710.5 "/>
<text text-anchor="middle" x="315.5" y="-695.3" font-family="Times New Roman,serif" font-size="14.00">(None, 30, 30, 64)</text>
<polyline fill="none" stroke="black" points="253,-687.5 378,-687.5 "/>
<text text-anchor="middle" x="315.5" y="-672.3" font-family="Times New Roman,serif" font-size="14.00">(None, 28, 28, 128)</text>
</g>
<!-- 1554519034176&#45;&gt;1554519032608 -->
<g id="edge9" class="edge"><title>1554519034176&#45;&gt;1554519032608</title>
<path fill="none" stroke="black" d="M224,-747.366C224,-739.152 224,-729.658 224,-720.725"/>
<polygon fill="black" stroke="black" points="227.5,-720.607 224,-710.607 220.5,-720.607 227.5,-720.607"/>
</g>
<!-- 1554519131696 -->
<g id="node11" class="node"><title>1554519131696</title>
<polygon fill="none" stroke="black" points="3.5,-581.5 3.5,-627.5 444.5,-627.5 444.5,-581.5 3.5,-581.5"/>
<text text-anchor="middle" x="133.5" y="-600.8" font-family="Times New Roman,serif" font-size="14.00">batch_normalization_3: BatchNormalization</text>
<polyline fill="none" stroke="black" points="263.5,-581.5 263.5,-627.5 "/>
<text text-anchor="middle" x="291.5" y="-612.3" font-family="Times New Roman,serif" font-size="14.00">input:</text>
<polyline fill="none" stroke="black" points="263.5,-604.5 319.5,-604.5 "/>
<text text-anchor="middle" x="291.5" y="-589.3" font-family="Times New Roman,serif" font-size="14.00">output:</text>
<polyline fill="none" stroke="black" points="319.5,-581.5 319.5,-627.5 "/>
<text text-anchor="middle" x="382" y="-612.3" font-family="Times New Roman,serif" font-size="14.00">(None, 28, 28, 128)</text>
<polyline fill="none" stroke="black" points="319.5,-604.5 444.5,-604.5 "/>
<text text-anchor="middle" x="382" y="-589.3" font-family="Times New Roman,serif" font-size="14.00">(None, 28, 28, 128)</text>
</g>
<!-- 1554519032608&#45;&gt;1554519131696 -->
<g id="edge10" class="edge"><title>1554519032608&#45;&gt;1554519131696</title>
<path fill="none" stroke="black" d="M224,-664.366C224,-656.152 224,-646.658 224,-637.725"/>
<polygon fill="black" stroke="black" points="227.5,-637.607 224,-627.607 220.5,-637.607 227.5,-637.607"/>
</g>
<!-- 1554519162608 -->
<g id="node12" class="node"><title>1554519162608</title>
<polygon fill="none" stroke="black" points="29,-498.5 29,-544.5 419,-544.5 419,-498.5 29,-498.5"/>
<text text-anchor="middle" x="133.5" y="-517.8" font-family="Times New Roman,serif" font-size="14.00">max_pooling2d_3: MaxPooling2D</text>
<polyline fill="none" stroke="black" points="238,-498.5 238,-544.5 "/>
<text text-anchor="middle" x="266" y="-529.3" font-family="Times New Roman,serif" font-size="14.00">input:</text>
<polyline fill="none" stroke="black" points="238,-521.5 294,-521.5 "/>
<text text-anchor="middle" x="266" y="-506.3" font-family="Times New Roman,serif" font-size="14.00">output:</text>
<polyline fill="none" stroke="black" points="294,-498.5 294,-544.5 "/>
<text text-anchor="middle" x="356.5" y="-529.3" font-family="Times New Roman,serif" font-size="14.00">(None, 28, 28, 128)</text>
<polyline fill="none" stroke="black" points="294,-521.5 419,-521.5 "/>
<text text-anchor="middle" x="356.5" y="-506.3" font-family="Times New Roman,serif" font-size="14.00">(None, 14, 14, 128)</text>
</g>
<!-- 1554519131696&#45;&gt;1554519162608 -->
<g id="edge11" class="edge"><title>1554519131696&#45;&gt;1554519162608</title>
<path fill="none" stroke="black" d="M224,-581.366C224,-573.152 224,-563.658 224,-554.725"/>
<polygon fill="black" stroke="black" points="227.5,-554.607 224,-544.607 220.5,-554.607 227.5,-554.607"/>
</g>
<!-- 1554519289808 -->
<g id="node13" class="node"><title>1554519289808</title>
<polygon fill="none" stroke="black" points="68.5,-415.5 68.5,-461.5 379.5,-461.5 379.5,-415.5 68.5,-415.5"/>
<text text-anchor="middle" x="133.5" y="-434.8" font-family="Times New Roman,serif" font-size="14.00">dropout_3: Dropout</text>
<polyline fill="none" stroke="black" points="198.5,-415.5 198.5,-461.5 "/>
<text text-anchor="middle" x="226.5" y="-446.3" font-family="Times New Roman,serif" font-size="14.00">input:</text>
<polyline fill="none" stroke="black" points="198.5,-438.5 254.5,-438.5 "/>
<text text-anchor="middle" x="226.5" y="-423.3" font-family="Times New Roman,serif" font-size="14.00">output:</text>
<polyline fill="none" stroke="black" points="254.5,-415.5 254.5,-461.5 "/>
<text text-anchor="middle" x="317" y="-446.3" font-family="Times New Roman,serif" font-size="14.00">(None, 14, 14, 128)</text>
<polyline fill="none" stroke="black" points="254.5,-438.5 379.5,-438.5 "/>
<text text-anchor="middle" x="317" y="-423.3" font-family="Times New Roman,serif" font-size="14.00">(None, 14, 14, 128)</text>
</g>
<!-- 1554519162608&#45;&gt;1554519289808 -->
<g id="edge12" class="edge"><title>1554519162608&#45;&gt;1554519289808</title>
<path fill="none" stroke="black" d="M224,-498.366C224,-490.152 224,-480.658 224,-471.725"/>
<polygon fill="black" stroke="black" points="227.5,-471.607 224,-461.607 220.5,-471.607 227.5,-471.607"/>
</g>
<!-- 1554519289584 -->
<g id="node14" class="node"><title>1554519289584</title>
<polygon fill="none" stroke="black" points="79,-332.5 79,-378.5 369,-378.5 369,-332.5 79,-332.5"/>
<text text-anchor="middle" x="133.5" y="-351.8" font-family="Times New Roman,serif" font-size="14.00">flatten_1: Flatten</text>
<polyline fill="none" stroke="black" points="188,-332.5 188,-378.5 "/>
<text text-anchor="middle" x="216" y="-363.3" font-family="Times New Roman,serif" font-size="14.00">input:</text>
<polyline fill="none" stroke="black" points="188,-355.5 244,-355.5 "/>
<text text-anchor="middle" x="216" y="-340.3" font-family="Times New Roman,serif" font-size="14.00">output:</text>
<polyline fill="none" stroke="black" points="244,-332.5 244,-378.5 "/>
<text text-anchor="middle" x="306.5" y="-363.3" font-family="Times New Roman,serif" font-size="14.00">(None, 14, 14, 128)</text>
<polyline fill="none" stroke="black" points="244,-355.5 369,-355.5 "/>
<text text-anchor="middle" x="306.5" y="-340.3" font-family="Times New Roman,serif" font-size="14.00">(None, 25088)</text>
</g>
<!-- 1554519289808&#45;&gt;1554519289584 -->
<g id="edge13" class="edge"><title>1554519289808&#45;&gt;1554519289584</title>
<path fill="none" stroke="black" d="M224,-415.366C224,-407.152 224,-397.658 224,-388.725"/>
<polygon fill="black" stroke="black" points="227.5,-388.607 224,-378.607 220.5,-388.607 227.5,-388.607"/>
</g>
<!-- 1554519329368 -->
<g id="node15" class="node"><title>1554519329368</title>
<polygon fill="none" stroke="black" points="95.5,-249.5 95.5,-295.5 352.5,-295.5 352.5,-249.5 95.5,-249.5"/>
<text text-anchor="middle" x="147.5" y="-268.8" font-family="Times New Roman,serif" font-size="14.00">dense_1: Dense</text>
<polyline fill="none" stroke="black" points="199.5,-249.5 199.5,-295.5 "/>
<text text-anchor="middle" x="227.5" y="-280.3" font-family="Times New Roman,serif" font-size="14.00">input:</text>
<polyline fill="none" stroke="black" points="199.5,-272.5 255.5,-272.5 "/>
<text text-anchor="middle" x="227.5" y="-257.3" font-family="Times New Roman,serif" font-size="14.00">output:</text>
<polyline fill="none" stroke="black" points="255.5,-249.5 255.5,-295.5 "/>
<text text-anchor="middle" x="304" y="-280.3" font-family="Times New Roman,serif" font-size="14.00">(None, 25088)</text>
<polyline fill="none" stroke="black" points="255.5,-272.5 352.5,-272.5 "/>
<text text-anchor="middle" x="304" y="-257.3" font-family="Times New Roman,serif" font-size="14.00">(None, 512)</text>
</g>
<!-- 1554519289584&#45;&gt;1554519329368 -->
<g id="edge14" class="edge"><title>1554519289584&#45;&gt;1554519329368</title>
<path fill="none" stroke="black" d="M224,-332.366C224,-324.152 224,-314.658 224,-305.725"/>
<polygon fill="black" stroke="black" points="227.5,-305.607 224,-295.607 220.5,-305.607 227.5,-305.607"/>
</g>
<!-- 1554519622712 -->
<g id="node16" class="node"><title>1554519622712</title>
<polygon fill="none" stroke="black" points="24.5,-166.5 24.5,-212.5 423.5,-212.5 423.5,-166.5 24.5,-166.5"/>
<text text-anchor="middle" x="154.5" y="-185.8" font-family="Times New Roman,serif" font-size="14.00">batch_normalization_4: BatchNormalization</text>
<polyline fill="none" stroke="black" points="284.5,-166.5 284.5,-212.5 "/>
<text text-anchor="middle" x="312.5" y="-197.3" font-family="Times New Roman,serif" font-size="14.00">input:</text>
<polyline fill="none" stroke="black" points="284.5,-189.5 340.5,-189.5 "/>
<text text-anchor="middle" x="312.5" y="-174.3" font-family="Times New Roman,serif" font-size="14.00">output:</text>
<polyline fill="none" stroke="black" points="340.5,-166.5 340.5,-212.5 "/>
<text text-anchor="middle" x="382" y="-197.3" font-family="Times New Roman,serif" font-size="14.00">(None, 512)</text>
<polyline fill="none" stroke="black" points="340.5,-189.5 423.5,-189.5 "/>
<text text-anchor="middle" x="382" y="-174.3" font-family="Times New Roman,serif" font-size="14.00">(None, 512)</text>
</g>
<!-- 1554519329368&#45;&gt;1554519622712 -->
<g id="edge15" class="edge"><title>1554519329368&#45;&gt;1554519622712</title>
<path fill="none" stroke="black" d="M224,-249.366C224,-241.152 224,-231.658 224,-222.725"/>
<polygon fill="black" stroke="black" points="227.5,-222.607 224,-212.607 220.5,-222.607 227.5,-222.607"/>
</g>
<!-- 1554519623720 -->
<g id="node17" class="node"><title>1554519623720</title>
<polygon fill="none" stroke="black" points="89.5,-83.5 89.5,-129.5 358.5,-129.5 358.5,-83.5 89.5,-83.5"/>
<text text-anchor="middle" x="154.5" y="-102.8" font-family="Times New Roman,serif" font-size="14.00">dropout_4: Dropout</text>
<polyline fill="none" stroke="black" points="219.5,-83.5 219.5,-129.5 "/>
<text text-anchor="middle" x="247.5" y="-114.3" font-family="Times New Roman,serif" font-size="14.00">input:</text>
<polyline fill="none" stroke="black" points="219.5,-106.5 275.5,-106.5 "/>
<text text-anchor="middle" x="247.5" y="-91.3" font-family="Times New Roman,serif" font-size="14.00">output:</text>
<polyline fill="none" stroke="black" points="275.5,-83.5 275.5,-129.5 "/>
<text text-anchor="middle" x="317" y="-114.3" font-family="Times New Roman,serif" font-size="14.00">(None, 512)</text>
<polyline fill="none" stroke="black" points="275.5,-106.5 358.5,-106.5 "/>
<text text-anchor="middle" x="317" y="-91.3" font-family="Times New Roman,serif" font-size="14.00">(None, 512)</text>
</g>
<!-- 1554519622712&#45;&gt;1554519623720 -->
<g id="edge16" class="edge"><title>1554519622712&#45;&gt;1554519623720</title>
<path fill="none" stroke="black" d="M224,-166.366C224,-158.152 224,-148.658 224,-139.725"/>
<polygon fill="black" stroke="black" points="227.5,-139.607 224,-129.607 220.5,-139.607 227.5,-139.607"/>
</g>
<!-- 1554519624672 -->
<g id="node18" class="node"><title>1554519624672</title>
<polygon fill="none" stroke="black" points="102.5,-0.5 102.5,-46.5 345.5,-46.5 345.5,-0.5 102.5,-0.5"/>
<text text-anchor="middle" x="154.5" y="-19.8" font-family="Times New Roman,serif" font-size="14.00">dense_2: Dense</text>
<polyline fill="none" stroke="black" points="206.5,-0.5 206.5,-46.5 "/>
<text text-anchor="middle" x="234.5" y="-31.3" font-family="Times New Roman,serif" font-size="14.00">input:</text>
<polyline fill="none" stroke="black" points="206.5,-23.5 262.5,-23.5 "/>
<text text-anchor="middle" x="234.5" y="-8.3" font-family="Times New Roman,serif" font-size="14.00">output:</text>
<polyline fill="none" stroke="black" points="262.5,-0.5 262.5,-46.5 "/>
<text text-anchor="middle" x="304" y="-31.3" font-family="Times New Roman,serif" font-size="14.00">(None, 512)</text>
<polyline fill="none" stroke="black" points="262.5,-23.5 345.5,-23.5 "/>
<text text-anchor="middle" x="304" y="-8.3" font-family="Times New Roman,serif" font-size="14.00">(None, 2)</text>
</g>
<!-- 1554519623720&#45;&gt;1554519624672 -->
<g id="edge17" class="edge"><title>1554519623720&#45;&gt;1554519624672</title>
<path fill="none" stroke="black" d="M224,-83.3664C224,-75.1516 224,-65.6579 224,-56.7252"/>
<polygon fill="black" stroke="black" points="227.5,-56.6068 224,-46.6068 220.5,-56.6069 227.5,-56.6068"/>
</g>
</g>
</svg>
